<?xml version="1.0" standalone="no"?>
<!DOCTYPE svg PUBLIC "-//W3C//DTD SVG 20010904//EN"
 "http://www.w3.org/TR/2001/REC-SVG-20010904/DTD/svg10.dtd">
<svg style="border-radius: 5px;" version="1.0" xmlns="http://www.w3.org/2000/svg"
 width="678.000000pt" height="381.000000pt" viewBox="0 0 678.000000 381.000000"
 preserveAspectRatio="xMidYMid meet">

<g transform="translate(0.000000,381.000000) scale(0.100000,-0.100000)"
fill="#f94c43" stroke="none">
<path d="M0 1905 l0 -1905 3390 0 3390 0 0 1905 0 1905 -3390 0 -3390 0 0
-1905z m3755 1005 l340 -340 -340 -340 -340 -340 -201 0 c-170 0 -204 2 -214
16 -11 13 32 60 311 340 l324 324 -324 324 c-279 280 -322 327 -311 340 10 14
44 16 214 16 l201 0 340 -340z m62 324 c4 -11 -18 -40 -73 -95 l-79 -79 -95
95 -95 95 168 0 c144 0 168 -2 174 -16z m-550 -346 l113 -113 -102 -102 -103
-103 103 -103 102 -102 -115 -115 -115 -115 -210 210 c-116 115 -210 217 -210
225 0 13 407 430 420 430 2 0 55 -51 117 -112z m550 -982 c-6 -14 -29 -16
-167 -16 -88 0 -160 3 -160 7 0 4 39 47 87 95 l88 88 79 -79 c55 -55 77 -84
73 -95z m-779 -294 c3 -57 -1 -61 -75 -75 l-33 -6 0 58 0 58 43 10 c23 6 47
10 52 8 6 -1 11 -25 13 -53z m-408 -87 l0 -75 95 0 95 0 0 -50 0 -50 -95 0
-95 0 0 -194 c0 -223 0 -222 84 -219 28 1 60 4 71 5 17 3 20 -4 23 -40 3 -38
1 -43 -25 -53 -45 -18 -153 -15 -190 4 -64 34 -68 48 -71 284 l-3 213 -40 0
-40 0 3 48 c3 47 3 47 41 50 l37 3 0 65 c0 72 10 82 78 83 l32 1 0 -75z m2070
-83 c36 -14 79 -63 90 -103 6 -18 10 -136 10 -260 l0 -226 -31 -7 c-62 -12
-69 -9 -69 29 0 41 -3 42 -40 15 -143 -102 -320 -39 -320 114 0 56 18 94 60
130 36 30 72 41 195 57 50 7 94 16 99 20 16 14 -4 100 -29 125 -21 21 -34 24
-98 24 -40 0 -97 -7 -126 -16 -29 -8 -54 -14 -56 -12 -2 2 -6 24 -10 50 l-7
46 74 16 c116 25 191 24 258 -2z m-2977 7 c37 -10 37 -11 37 -61 0 -48 -1 -50
-22 -43 -13 4 -64 9 -113 12 -78 4 -93 3 -112 -13 -59 -51 -30 -98 91 -143
105 -40 146 -67 168 -111 34 -67 10 -166 -48 -207 -62 -44 -183 -59 -306 -39
l-48 7 0 50 c0 56 -3 55 100 38 79 -13 156 -3 181 22 11 11 19 33 19 54 0 42
-15 53 -126 96 -95 36 -141 70 -160 115 -39 93 6 181 112 219 46 17 174 19
227 4z m489 1 c49 -14 96 -64 113 -124 17 -57 22 -461 6 -470 -5 -4 -30 -9
-55 -12 l-46 -7 0 37 0 36 -56 -31 c-78 -44 -174 -52 -223 -17 -46 31 -70 66
-77 110 -13 78 21 150 87 184 16 8 82 23 147 32 128 20 130 21 117 89 -3 19
-17 46 -30 59 -21 21 -34 24 -96 24 -39 0 -96 -7 -126 -16 -30 -9 -56 -14 -57
-12 -2 1 -6 22 -10 45 -4 28 -2 44 6 49 47 29 229 43 300 24z m828 -289 c0
-171 -4 -302 -9 -305 -5 -4 -30 -9 -55 -12 l-46 -7 0 306 0 306 28 4 c15 2 39
5 55 6 l27 1 0 -299z m485 290 c28 -6 30 -9 33 -60 3 -52 2 -53 -20 -46 -33
11 -164 18 -192 11 -35 -9 -56 -33 -56 -66 0 -37 19 -50 135 -95 116 -45 156
-82 163 -154 2 -27 2 -61 -2 -75 -10 -41 -63 -93 -113 -112 -49 -19 -168 -24
-255 -10 l-48 7 0 51 0 50 68 -8 c152 -20 224 -4 238 51 7 30 -17 72 -49 85
-12 5 -57 23 -100 41 -43 17 -91 44 -107 61 -84 83 -46 219 72 261 44 16 177
20 233 8z m295 -25 l0 -34 56 30 c72 40 172 49 238 24 95 -36 146 -133 146
-276 0 -248 -164 -376 -417 -324 l-23 4 0 -144 c0 -80 -4 -147 -8 -150 -5 -3
-28 -8 -50 -12 l-42 -7 0 456 0 456 28 4 c69 10 72 9 72 -27z m1189 7 c5 -10
22 -63 39 -118 83 -272 97 -315 102 -315 3 0 39 100 80 223 l76 222 59 0 c44
0 59 -4 57 -13 -7 -36 -228 -635 -252 -683 -38 -78 -72 -120 -137 -170 l-55
-43 -29 34 c-16 19 -29 38 -29 41 0 4 20 23 45 43 51 42 96 104 114 156 12 33
7 51 -88 324 -56 159 -101 295 -101 303 0 22 107 18 119 -4z"/>
<path d="M4570 1104 c-58 -10 -80 -19 -97 -39 -29 -33 -29 -65 -1 -100 19 -25
26 -27 77 -23 38 3 72 13 104 32 l47 28 0 59 c0 58 0 59 -27 58 -16 -1 -62 -7
-103 -15z"/>
<path d="M2107 1105 c-44 -8 -87 -21 -98 -31 -26 -24 -26 -94 1 -119 28 -26
113 -17 174 19 l46 27 0 59 c0 69 7 67 -123 45z"/>
<path d="M3910 1342 c-19 -10 -47 -26 -62 -36 l-28 -18 0 -169 c0 -109 4 -170
11 -174 6 -4 50 -8 97 -8 97 -1 132 11 175 62 71 85 56 305 -24 346 -38 20
-126 18 -169 -3z"/>
</g>
</svg>
