<?xml version="1.0" encoding="UTF-8" standalone="no"?>

<svg version="1.1" id="svg41" width="120.26001" height="120.26001" viewBox="0 0 120.26001 120.26001" sodipodi:docname="tema-farmaregno.ai"
   xmlns:inkscape="http://www.inkscape.org/namespaces/inkscape"
   xmlns:sodipodi="http://sodipodi.sourceforge.net/DTD/sodipodi-0.dtd"
   xmlns="http://www.w3.org/2000/svg"
   xmlns:svg="http://www.w3.org/2000/svg">
   <defs id="defs45">
      <clipPath clipPathUnits="userSpaceOnUse" id="clipPath1765">
         <path d="M 0,3409.656 H 2560 V 0 H 0 Z" id="path1763" />
      </clipPath>
   </defs>
   <sodipodi:namedview id="namedview43" pagecolor="#ffffff" bordercolor="#999999" borderopacity="1" inkscape:showpageshadow="0" inkscape:pageopacity="0" inkscape:pagecheckerboard="0" inkscape:deskcolor="#d1d1d1" showgrid="false" />
   <g id="g49" inkscape:groupmode="layer" inkscape:label="Page 1" transform="matrix(1.3333333,0,0,-1.3333333,-878.49358,1075.749)">
      <g id="g1759">
         <g id="g1761" clip-path="url(#clipPath1765)">
            <g id="g1777" transform="translate(748.5162,762.9397)">
               <path d="m 0,0 c -0.866,1.933 -5.536,11.574 -12.537,11.574 -4.988,0 -12.048,-5.552 -15.696,-8.744 -4.839,2.19 -10.072,7.422 -12.261,12.262 3.192,3.648 8.743,10.707 8.743,15.695 0,7 -9.64,11.671 -11.573,12.537 l -1.225,0.548 -1.225,-0.548 c -1.933,-0.866 -11.573,-5.537 -11.573,-12.537 0,-4.988 5.552,-12.047 8.742,-15.695 -2.188,-4.84 -7.421,-10.072 -12.262,-12.262 -3.646,3.192 -10.706,8.744 -15.694,8.744 -7.001,0 -11.671,-9.641 -12.537,-11.574 l -0.548,-1.225 0.548,-1.224 c 0.865,-1.934 5.536,-11.575 12.537,-11.575 4.988,0 12.048,5.553 15.696,8.743 4.839,-2.188 10.072,-7.421 12.26,-12.261 -3.19,-3.647 -8.742,-10.708 -8.742,-15.696 0,-7 9.64,-11.671 11.573,-12.536 l 1.225,-0.549 1.225,0.549 c 1.933,0.865 11.573,5.536 11.573,12.536 0,4.988 -5.551,12.049 -8.743,15.696 2.189,4.84 7.422,10.073 12.261,12.261 3.648,-3.19 10.708,-8.743 15.696,-8.743 7.001,0 11.671,9.641 12.537,11.575 l 0.549,1.224 z m -44.549,37.25 c 3.12,-1.654 6.802,-4.495 6.802,-6.463 0,-2.161 -3.227,-7.029 -6.798,-11.217 -3.268,3.844 -6.806,8.88 -6.806,11.217 0,1.985 3.635,4.79 6.802,6.463 M -76.561,-8.028 c -1.985,0 -4.791,3.637 -6.463,6.803 1.653,3.12 4.495,6.803 6.463,6.803 2.16,0 7.032,-3.23 11.22,-6.803 -4.188,-3.573 -9.06,-6.803 -11.22,-6.803 M -44.549,-39.7 c -3.168,1.674 -6.802,4.478 -6.802,6.462 0,2.162 3.227,7.029 6.798,11.218 3.269,-3.844 6.806,-8.881 6.806,-11.218 0,-1.984 -3.635,-4.788 -6.802,-6.462 m 0,27.189 c -2.674,4.443 -6.843,8.612 -11.287,11.286 4.444,2.675 8.613,6.842 11.287,11.287 2.674,-4.445 6.842,-8.612 11.287,-11.287 -4.445,-2.674 -8.613,-6.843 -11.287,-11.286 m 32.012,4.483 c -2.16,0 -7.029,3.228 -11.218,6.8 3.845,3.268 8.882,6.806 11.218,6.806 1.985,0 4.79,-3.636 6.463,-6.803 -1.675,-3.169 -4.478,-6.803 -6.463,-6.803" style="fill:#499385;fill-opacity:1;fill-rule:nonzero;stroke:none" id="path1779" />
            </g>
         </g>
      </g>
   </g>
</svg>
